- 
http://www.Speed.Cd
 
http://www.Speed.Cd       the fast  and The Hottest Private Tracker on the net

Please Seed back to make the speed Faster!!
 ............ NFO .............
-[IMG]http://i.imgur.com/RwYX09C.png[/IMG]

Source: 720p Bluray x264 AC3 - BluDragon - Thanks

^^ Source came with English track.
 
http://www.imdb.com/title/tt1974262/

A short flashback of what happened in prequel of Heaven's Lost Property series until there's an Angel, Hiyori Kazane who is dreaming while her real body is in heaven. She had a crush on the main protagonist, Tomoki Sakurai who fight until the end where the world has memory about Hiyori erased when she died in her dream and returned to her real body. She wanted to return to her dream so much that she got modified into an Angeloid of Clockwork by heaven's master but got back consciousness with help of Tomoki. However, it was not enough to save her life.

General
Complete name                            : Heavens Lost Property the Movie The Angeloid of Clockwork 2011 BRRip x264 AAC-OFFLiNE.mp4
Format                                   : MPEG-4
Format profile                           : Base Media
Codec ID                                 : isom
File size                                : 1.44 GiB
Duration                                 : 1h 37mn
Overall bit rate mode                    : Variable
Overall bit rate                         : 2 121 Kbps
Encoded date                             : UTC 2013-02-24 06:44:48
Tagged date                              : UTC 2013-02-24 06:44:48

Video
ID                                       : 1
Format                                   : AVC
Format/Info                              : Advanced Video Codec
Format profile                           : High@L4.1
Format settings, CABAC                   : Yes
Format settings, ReFrames                : 3 frames
Codec ID                                 : avc1
Codec ID/Info                            : Advanced Video Coding
Duration                                 : 1h 37mn
Bit rate mode                            : Variable
Bit rate                                 : 1 793 Kbps
Maximum bit rate                         : 40.0 Mbps
Width                                    : 720 pixels
Height                                   : 400 pixels
Display aspect ratio                     : 16:9
Frame rate mode                          : Constant
Frame rate                               : 23.976 fps
Color space                              : YUV
Chroma subsampling                       : 4:2:0
Bit depth                                : 8 bits
Scan type                                : Progressive
Bits/(Pixel*Frame)                       : 0.260
Stream size                              : 1.22 GiB (85%)
Writing library                          : x264 core 129 r2245 bc13772

Audio
ID                                       : 2
Format                                   : AAC
Format/Info                              : Advanced Audio Codec
Format profile                           : LC
Codec ID                                 : 40
Duration                                 : 1h 37mn
Bit rate mode                            : Variable
Bit rate                                 : 324 Kbps
Maximum bit rate                         : 397 Kbps
Channel(s)                               : 6 channels
Channel positions                        : Front: L C R, Side: L R, LFE
Sampling rate                            : 48.0 KHz
Compression mode                         : Lossy
Stream size                              : 225 MiB (15%)
Language                                 : English
Encoded date                             : UTC 2013-02-24 04:42:44
Tagged date                              : UTC 2013-02-24 06:45:27

[IMG]http://i.imgur.com/BeZar8B.png[/IMG]
[IMG]http://i.imgur.com/pnp1pmu.png[/IMG]
[IMG]http://i.imgur.com/6LGN7TM.png[/IMG]
[IMG]http://i.imgur.com/Asw0FGl.png[/IMG]
[IMG]http://i.imgur.com/Lbtgt5C.png[/IMG]
[IMG]http://i.imgur.com/s7bTJcJ.png[/IMG]

Greets: To Our Friends